<mxfile host="app.diagrams.net" modified="2024-02-08T05:57:31.169Z" agent="Mozilla/5.0 (Windows NT 10.0; Win64; x64) AppleWebKit/537.36 (KHTML, like Gecko) Chrome/120.0.0.0 Safari/537.36" etag="KiYClx-74gMmaLUF33gF" version="23.1.2" type="github">
  <diagram name="Page-1" id="kp5h2HxVuWxmvvwUFG4n">
    <mxGraphModel dx="2284" dy="780" grid="1" gridSize="10" guides="1" tooltips="1" connect="1" arrows="1" fold="1" page="1" pageScale="1" pageWidth="850" pageHeight="1100" math="0" shadow="0">
      <root>
        <mxCell id="0" />
        <mxCell id="1" parent="0" />
        <mxCell id="KqxjXM2WxhmaJUW-WSdB-1" value="LIS Main Page" style="rounded=0;whiteSpace=wrap;html=1;" vertex="1" parent="1">
          <mxGeometry x="320" y="80" width="160" height="80" as="geometry" />
        </mxCell>
        <mxCell id="KqxjXM2WxhmaJUW-WSdB-2" value="Member Account" style="rounded=0;whiteSpace=wrap;html=1;" vertex="1" parent="1">
          <mxGeometry x="640" y="80" width="160" height="80" as="geometry" />
        </mxCell>
        <mxCell id="KqxjXM2WxhmaJUW-WSdB-3" value="Book Database" style="rounded=0;whiteSpace=wrap;html=1;" vertex="1" parent="1">
          <mxGeometry x="960" y="80" width="160" height="80" as="geometry" />
        </mxCell>
        <mxCell id="KqxjXM2WxhmaJUW-WSdB-4" value="Member" style="shape=umlActor;verticalLabelPosition=bottom;verticalAlign=top;html=1;outlineConnect=0;" vertex="1" parent="1">
          <mxGeometry x="180" y="90" width="30" height="60" as="geometry" />
        </mxCell>
        <mxCell id="KqxjXM2WxhmaJUW-WSdB-5" value="" style="line;strokeWidth=4;direction=south;html=1;perimeter=backbonePerimeter;points=[];outlineConnect=0;" vertex="1" parent="1">
          <mxGeometry x="110" y="180" width="10" height="900" as="geometry" />
        </mxCell>
        <mxCell id="KqxjXM2WxhmaJUW-WSdB-6" value="" style="line;strokeWidth=4;direction=south;html=1;perimeter=backbonePerimeter;points=[];outlineConnect=0;" vertex="1" parent="1">
          <mxGeometry x="395" y="160" width="10" height="920" as="geometry" />
        </mxCell>
        <mxCell id="KqxjXM2WxhmaJUW-WSdB-7" value="" style="line;strokeWidth=4;direction=south;html=1;perimeter=backbonePerimeter;points=[];outlineConnect=0;" vertex="1" parent="1">
          <mxGeometry x="715" y="160" width="10" height="920" as="geometry" />
        </mxCell>
        <mxCell id="KqxjXM2WxhmaJUW-WSdB-8" value="" style="line;strokeWidth=4;direction=south;html=1;perimeter=backbonePerimeter;points=[];outlineConnect=0;" vertex="1" parent="1">
          <mxGeometry x="1035" y="160" width="10" height="920" as="geometry" />
        </mxCell>
        <mxCell id="KqxjXM2WxhmaJUW-WSdB-11" value="" style="rounded=0;whiteSpace=wrap;html=1;fillColor=none;" vertex="1" parent="1">
          <mxGeometry x="-80" y="240" width="1200" height="160" as="geometry" />
        </mxCell>
        <mxCell id="KqxjXM2WxhmaJUW-WSdB-12" value="" style="rounded=0;whiteSpace=wrap;html=1;fillColor=none;" vertex="1" parent="1">
          <mxGeometry x="-80" y="560" width="1200" height="160" as="geometry" />
        </mxCell>
        <mxCell id="KqxjXM2WxhmaJUW-WSdB-13" value="" style="rounded=0;whiteSpace=wrap;html=1;fillColor=none;" vertex="1" parent="1">
          <mxGeometry x="-80" y="880" width="1200" height="160" as="geometry" />
        </mxCell>
        <mxCell id="KqxjXM2WxhmaJUW-WSdB-15" value="" style="endArrow=none;dashed=1;html=1;rounded=0;exitX=0;exitY=0.5;exitDx=0;exitDy=0;entryX=1;entryY=0.5;entryDx=0;entryDy=0;" edge="1" parent="1" source="KqxjXM2WxhmaJUW-WSdB-11" target="KqxjXM2WxhmaJUW-WSdB-11">
          <mxGeometry width="50" height="50" relative="1" as="geometry">
            <mxPoint x="600" y="440" as="sourcePoint" />
            <mxPoint x="650" y="390" as="targetPoint" />
          </mxGeometry>
        </mxCell>
        <mxCell id="KqxjXM2WxhmaJUW-WSdB-16" value="" style="endArrow=none;dashed=1;html=1;rounded=0;exitX=0;exitY=0.5;exitDx=0;exitDy=0;" edge="1" parent="1">
          <mxGeometry width="50" height="50" relative="1" as="geometry">
            <mxPoint x="-80" y="639.5" as="sourcePoint" />
            <mxPoint x="1120" y="640" as="targetPoint" />
          </mxGeometry>
        </mxCell>
        <mxCell id="KqxjXM2WxhmaJUW-WSdB-17" value="" style="endArrow=none;dashed=1;html=1;rounded=0;exitX=0;exitY=0.5;exitDx=0;exitDy=0;" edge="1" parent="1">
          <mxGeometry width="50" height="50" relative="1" as="geometry">
            <mxPoint x="-80" y="959.5" as="sourcePoint" />
            <mxPoint x="1120" y="960" as="targetPoint" />
          </mxGeometry>
        </mxCell>
        <mxCell id="KqxjXM2WxhmaJUW-WSdB-18" value="Valid Member" style="text;html=1;strokeColor=none;fillColor=none;align=center;verticalAlign=middle;whiteSpace=wrap;rounded=0;" vertex="1" parent="1">
          <mxGeometry x="-70" y="250" width="60" height="30" as="geometry" />
        </mxCell>
        <mxCell id="KqxjXM2WxhmaJUW-WSdB-19" value="Invalid Member" style="text;html=1;strokeColor=none;fillColor=none;align=center;verticalAlign=middle;whiteSpace=wrap;rounded=0;" vertex="1" parent="1">
          <mxGeometry x="-70" y="330" width="60" height="30" as="geometry" />
        </mxCell>
        <mxCell id="KqxjXM2WxhmaJUW-WSdB-20" value="Book Available" style="text;html=1;strokeColor=none;fillColor=none;align=center;verticalAlign=middle;whiteSpace=wrap;rounded=0;" vertex="1" parent="1">
          <mxGeometry x="-70" y="570" width="60" height="30" as="geometry" />
        </mxCell>
        <mxCell id="KqxjXM2WxhmaJUW-WSdB-21" value="Book Unavailable" style="text;html=1;strokeColor=none;fillColor=none;align=center;verticalAlign=middle;whiteSpace=wrap;rounded=0;" vertex="1" parent="1">
          <mxGeometry x="-70" y="650" width="60" height="30" as="geometry" />
        </mxCell>
        <mxCell id="KqxjXM2WxhmaJUW-WSdB-22" value="Due Penalty" style="text;html=1;strokeColor=none;fillColor=none;align=center;verticalAlign=middle;whiteSpace=wrap;rounded=0;" vertex="1" parent="1">
          <mxGeometry x="-70" y="890" width="60" height="30" as="geometry" />
        </mxCell>
        <mxCell id="KqxjXM2WxhmaJUW-WSdB-23" value="else" style="text;html=1;strokeColor=none;fillColor=none;align=center;verticalAlign=middle;whiteSpace=wrap;rounded=0;" vertex="1" parent="1">
          <mxGeometry x="-70" y="970" width="60" height="30" as="geometry" />
        </mxCell>
        <mxCell id="KqxjXM2WxhmaJUW-WSdB-24" value="" style="endArrow=classic;html=1;rounded=0;" edge="1" parent="1" source="KqxjXM2WxhmaJUW-WSdB-5" target="KqxjXM2WxhmaJUW-WSdB-6">
          <mxGeometry width="50" height="50" relative="1" as="geometry">
            <mxPoint x="600" y="420" as="sourcePoint" />
            <mxPoint x="650" y="370" as="targetPoint" />
            <Array as="points">
              <mxPoint x="280" y="220" />
            </Array>
          </mxGeometry>
        </mxCell>
        <mxCell id="KqxjXM2WxhmaJUW-WSdB-25" value="" style="endArrow=classic;html=1;rounded=0;" edge="1" parent="1" target="KqxjXM2WxhmaJUW-WSdB-7">
          <mxGeometry width="50" height="50" relative="1" as="geometry">
            <mxPoint x="405" y="220" as="sourcePoint" />
            <mxPoint x="687" y="220" as="targetPoint" />
            <Array as="points">
              <mxPoint x="569" y="220" />
            </Array>
          </mxGeometry>
        </mxCell>
        <mxCell id="KqxjXM2WxhmaJUW-WSdB-26" value="Login Request&lt;br&gt;" style="text;html=1;align=center;verticalAlign=middle;resizable=0;points=[];autosize=1;strokeColor=none;fillColor=none;" vertex="1" parent="1">
          <mxGeometry x="180" y="188" width="100" height="30" as="geometry" />
        </mxCell>
        <mxCell id="KqxjXM2WxhmaJUW-WSdB-27" value="Account Validation" style="text;html=1;align=center;verticalAlign=middle;resizable=0;points=[];autosize=1;strokeColor=none;fillColor=none;" vertex="1" parent="1">
          <mxGeometry x="510" y="188" width="120" height="30" as="geometry" />
        </mxCell>
        <mxCell id="KqxjXM2WxhmaJUW-WSdB-28" value="" style="endArrow=none;dashed=1;html=1;dashPattern=1 3;strokeWidth=2;rounded=0;" edge="1" parent="1" source="KqxjXM2WxhmaJUW-WSdB-5">
          <mxGeometry width="50" height="50" relative="1" as="geometry">
            <mxPoint x="600" y="420" as="sourcePoint" />
            <mxPoint x="120" y="110" as="targetPoint" />
          </mxGeometry>
        </mxCell>
        <mxCell id="KqxjXM2WxhmaJUW-WSdB-29" value="" style="endArrow=none;dashed=1;html=1;dashPattern=1 3;strokeWidth=2;rounded=0;exitX=0;exitY=0.3333333333333333;exitDx=0;exitDy=0;exitPerimeter=0;" edge="1" parent="1" source="KqxjXM2WxhmaJUW-WSdB-4">
          <mxGeometry width="50" height="50" relative="1" as="geometry">
            <mxPoint x="126" y="190" as="sourcePoint" />
            <mxPoint x="120" y="110" as="targetPoint" />
          </mxGeometry>
        </mxCell>
        <mxCell id="KqxjXM2WxhmaJUW-WSdB-31" value="" style="endArrow=classic;html=1;rounded=0;" edge="1" parent="1">
          <mxGeometry width="50" height="50" relative="1" as="geometry">
            <mxPoint x="402" y="280" as="sourcePoint" />
            <mxPoint x="402" y="280" as="targetPoint" />
            <Array as="points">
              <mxPoint x="720" y="280" />
            </Array>
          </mxGeometry>
        </mxCell>
        <mxCell id="KqxjXM2WxhmaJUW-WSdB-32" value="Valid Account" style="text;html=1;strokeColor=none;fillColor=none;align=center;verticalAlign=middle;whiteSpace=wrap;rounded=0;" vertex="1" parent="1">
          <mxGeometry x="520" y="250" width="60" height="30" as="geometry" />
        </mxCell>
        <mxCell id="KqxjXM2WxhmaJUW-WSdB-33" value="" style="endArrow=classic;html=1;rounded=0;" edge="1" parent="1">
          <mxGeometry width="50" height="50" relative="1" as="geometry">
            <mxPoint x="110" y="300" as="sourcePoint" />
            <mxPoint x="120" y="300" as="targetPoint" />
            <Array as="points">
              <mxPoint x="400" y="300" />
            </Array>
          </mxGeometry>
        </mxCell>
        <mxCell id="KqxjXM2WxhmaJUW-WSdB-34" value="Login Successful" style="text;html=1;strokeColor=none;fillColor=none;align=center;verticalAlign=middle;whiteSpace=wrap;rounded=0;" vertex="1" parent="1">
          <mxGeometry x="210" y="270" width="60" height="30" as="geometry" />
        </mxCell>
        <mxCell id="KqxjXM2WxhmaJUW-WSdB-35" value="" style="endArrow=classic;html=1;rounded=0;" edge="1" parent="1">
          <mxGeometry width="50" height="50" relative="1" as="geometry">
            <mxPoint x="405" y="360" as="sourcePoint" />
            <mxPoint x="405" y="360" as="targetPoint" />
            <Array as="points">
              <mxPoint x="723" y="360" />
            </Array>
          </mxGeometry>
        </mxCell>
        <mxCell id="KqxjXM2WxhmaJUW-WSdB-36" value="Invalid Account" style="text;html=1;strokeColor=none;fillColor=none;align=center;verticalAlign=middle;whiteSpace=wrap;rounded=0;" vertex="1" parent="1">
          <mxGeometry x="520" y="330" width="60" height="30" as="geometry" />
        </mxCell>
        <mxCell id="KqxjXM2WxhmaJUW-WSdB-37" value="" style="endArrow=classic;html=1;rounded=0;" edge="1" parent="1">
          <mxGeometry width="50" height="50" relative="1" as="geometry">
            <mxPoint x="110" y="380" as="sourcePoint" />
            <mxPoint x="120" y="380" as="targetPoint" />
            <Array as="points">
              <mxPoint x="400" y="380" />
            </Array>
          </mxGeometry>
        </mxCell>
        <mxCell id="KqxjXM2WxhmaJUW-WSdB-38" value="Login Unsuccessful" style="text;html=1;strokeColor=none;fillColor=none;align=center;verticalAlign=middle;whiteSpace=wrap;rounded=0;" vertex="1" parent="1">
          <mxGeometry x="220" y="350" width="60" height="30" as="geometry" />
        </mxCell>
        <mxCell id="KqxjXM2WxhmaJUW-WSdB-39" value="" style="endArrow=classic;html=1;rounded=0;" edge="1" parent="1">
          <mxGeometry width="50" height="50" relative="1" as="geometry">
            <mxPoint x="113" y="480" as="sourcePoint" />
            <mxPoint x="395" y="480" as="targetPoint" />
            <Array as="points">
              <mxPoint x="277" y="480" />
            </Array>
          </mxGeometry>
        </mxCell>
        <mxCell id="KqxjXM2WxhmaJUW-WSdB-40" value="Search a book" style="text;html=1;strokeColor=none;fillColor=none;align=center;verticalAlign=middle;whiteSpace=wrap;rounded=0;" vertex="1" parent="1">
          <mxGeometry x="220" y="450" width="80" height="30" as="geometry" />
        </mxCell>
        <mxCell id="KqxjXM2WxhmaJUW-WSdB-41" value="" style="endArrow=classic;html=1;rounded=0;" edge="1" parent="1">
          <mxGeometry width="50" height="50" relative="1" as="geometry">
            <mxPoint x="405" y="480" as="sourcePoint" />
            <mxPoint x="718" y="480" as="targetPoint" />
            <Array as="points">
              <mxPoint x="569" y="480" />
            </Array>
          </mxGeometry>
        </mxCell>
        <mxCell id="KqxjXM2WxhmaJUW-WSdB-42" value="Request a book" style="text;html=1;align=center;verticalAlign=middle;resizable=0;points=[];autosize=1;strokeColor=none;fillColor=none;" vertex="1" parent="1">
          <mxGeometry x="510" y="450" width="110" height="30" as="geometry" />
        </mxCell>
        <mxCell id="KqxjXM2WxhmaJUW-WSdB-43" value="" style="endArrow=classic;html=1;rounded=0;" edge="1" parent="1">
          <mxGeometry width="50" height="50" relative="1" as="geometry">
            <mxPoint x="722" y="480" as="sourcePoint" />
            <mxPoint x="1035" y="480" as="targetPoint" />
            <Array as="points">
              <mxPoint x="886" y="480" />
            </Array>
          </mxGeometry>
        </mxCell>
        <mxCell id="KqxjXM2WxhmaJUW-WSdB-44" value="Availability Query" style="text;html=1;align=center;verticalAlign=middle;resizable=0;points=[];autosize=1;strokeColor=none;fillColor=none;" vertex="1" parent="1">
          <mxGeometry x="820" y="450" width="120" height="30" as="geometry" />
        </mxCell>
        <mxCell id="KqxjXM2WxhmaJUW-WSdB-45" value="" style="endArrow=classic;html=1;rounded=0;" edge="1" parent="1">
          <mxGeometry width="50" height="50" relative="1" as="geometry">
            <mxPoint x="721" y="600" as="sourcePoint" />
            <mxPoint x="721" y="600" as="targetPoint" />
            <Array as="points">
              <mxPoint x="1039" y="600" />
            </Array>
          </mxGeometry>
        </mxCell>
        <mxCell id="KqxjXM2WxhmaJUW-WSdB-46" value="" style="endArrow=classic;html=1;rounded=0;" edge="1" parent="1">
          <mxGeometry width="50" height="50" relative="1" as="geometry">
            <mxPoint x="725" y="680" as="sourcePoint" />
            <mxPoint x="725" y="680" as="targetPoint" />
            <Array as="points">
              <mxPoint x="1043" y="680" />
            </Array>
          </mxGeometry>
        </mxCell>
        <mxCell id="KqxjXM2WxhmaJUW-WSdB-47" value="" style="endArrow=classic;html=1;rounded=0;" edge="1" parent="1">
          <mxGeometry width="50" height="50" relative="1" as="geometry">
            <mxPoint x="405" y="600" as="sourcePoint" />
            <mxPoint x="405" y="600" as="targetPoint" />
            <Array as="points">
              <mxPoint x="723" y="600" />
            </Array>
          </mxGeometry>
        </mxCell>
        <mxCell id="KqxjXM2WxhmaJUW-WSdB-48" value="" style="endArrow=classic;html=1;rounded=0;" edge="1" parent="1">
          <mxGeometry width="50" height="50" relative="1" as="geometry">
            <mxPoint x="405" y="680" as="sourcePoint" />
            <mxPoint x="405" y="680" as="targetPoint" />
            <Array as="points">
              <mxPoint x="723" y="680" />
            </Array>
          </mxGeometry>
        </mxCell>
        <mxCell id="KqxjXM2WxhmaJUW-WSdB-49" value="" style="endArrow=classic;html=1;rounded=0;" edge="1" parent="1">
          <mxGeometry width="50" height="50" relative="1" as="geometry">
            <mxPoint x="120" y="619.5" as="sourcePoint" />
            <mxPoint x="120" y="619.5" as="targetPoint" />
            <Array as="points">
              <mxPoint x="400" y="620" />
            </Array>
          </mxGeometry>
        </mxCell>
        <mxCell id="KqxjXM2WxhmaJUW-WSdB-50" value="" style="endArrow=classic;html=1;rounded=0;" edge="1" parent="1">
          <mxGeometry width="50" height="50" relative="1" as="geometry">
            <mxPoint x="120" y="680" as="sourcePoint" />
            <mxPoint x="120" y="680" as="targetPoint" />
            <Array as="points">
              <mxPoint x="438" y="680" />
            </Array>
          </mxGeometry>
        </mxCell>
        <mxCell id="KqxjXM2WxhmaJUW-WSdB-51" value="Success" style="text;html=1;strokeColor=none;fillColor=none;align=center;verticalAlign=middle;whiteSpace=wrap;rounded=0;" vertex="1" parent="1">
          <mxGeometry x="840" y="570" width="60" height="30" as="geometry" />
        </mxCell>
        <mxCell id="KqxjXM2WxhmaJUW-WSdB-52" value="Unsuccessful" style="text;html=1;strokeColor=none;fillColor=none;align=center;verticalAlign=middle;whiteSpace=wrap;rounded=0;" vertex="1" parent="1">
          <mxGeometry x="840" y="650" width="60" height="30" as="geometry" />
        </mxCell>
        <mxCell id="KqxjXM2WxhmaJUW-WSdB-53" value="Request Successful" style="text;html=1;strokeColor=none;fillColor=none;align=center;verticalAlign=middle;whiteSpace=wrap;rounded=0;" vertex="1" parent="1">
          <mxGeometry x="495" y="570" width="110" height="30" as="geometry" />
        </mxCell>
        <mxCell id="KqxjXM2WxhmaJUW-WSdB-54" value="Book not available" style="text;html=1;strokeColor=none;fillColor=none;align=center;verticalAlign=middle;whiteSpace=wrap;rounded=0;" vertex="1" parent="1">
          <mxGeometry x="495" y="650" width="110" height="30" as="geometry" />
        </mxCell>
        <mxCell id="KqxjXM2WxhmaJUW-WSdB-55" value="Book issued" style="text;html=1;strokeColor=none;fillColor=none;align=center;verticalAlign=middle;whiteSpace=wrap;rounded=0;" vertex="1" parent="1">
          <mxGeometry x="200" y="615" width="90" height="30" as="geometry" />
        </mxCell>
        <mxCell id="KqxjXM2WxhmaJUW-WSdB-56" value="" style="endArrow=classic;html=1;rounded=0;" edge="1" parent="1">
          <mxGeometry width="50" height="50" relative="1" as="geometry">
            <mxPoint x="120" y="600" as="sourcePoint" />
            <mxPoint x="120" y="600" as="targetPoint" />
            <Array as="points">
              <mxPoint x="400" y="600" />
            </Array>
          </mxGeometry>
        </mxCell>
        <mxCell id="KqxjXM2WxhmaJUW-WSdB-57" value="Return the rack number and the number of available books" style="text;html=1;strokeColor=none;fillColor=none;align=center;verticalAlign=middle;whiteSpace=wrap;rounded=0;" vertex="1" parent="1">
          <mxGeometry x="145" y="570" width="210" height="30" as="geometry" />
        </mxCell>
        <mxCell id="KqxjXM2WxhmaJUW-WSdB-65" value="Print Message &quot;Book not available&quot;" style="text;html=1;strokeColor=none;fillColor=none;align=center;verticalAlign=middle;whiteSpace=wrap;rounded=0;" vertex="1" parent="1">
          <mxGeometry x="155" y="650" width="190" height="30" as="geometry" />
        </mxCell>
        <mxCell id="KqxjXM2WxhmaJUW-WSdB-67" value="" style="endArrow=classic;html=1;rounded=0;" edge="1" parent="1" target="KqxjXM2WxhmaJUW-WSdB-5">
          <mxGeometry width="50" height="50" relative="1" as="geometry">
            <mxPoint x="-20" y="800" as="sourcePoint" />
            <mxPoint x="30" y="760" as="targetPoint" />
            <Array as="points">
              <mxPoint x="60" y="800" />
            </Array>
          </mxGeometry>
        </mxCell>
        <mxCell id="KqxjXM2WxhmaJUW-WSdB-68" value="Return" style="text;html=1;strokeColor=none;fillColor=none;align=center;verticalAlign=middle;whiteSpace=wrap;rounded=0;" vertex="1" parent="1">
          <mxGeometry x="-50" y="808" width="60" height="30" as="geometry" />
        </mxCell>
        <mxCell id="KqxjXM2WxhmaJUW-WSdB-69" value="" style="endArrow=classic;html=1;rounded=0;" edge="1" parent="1">
          <mxGeometry width="50" height="50" relative="1" as="geometry">
            <mxPoint x="115" y="840" as="sourcePoint" />
            <mxPoint x="115" y="840" as="targetPoint" />
            <Array as="points">
              <mxPoint x="395" y="840.5" />
            </Array>
          </mxGeometry>
        </mxCell>
        <mxCell id="KqxjXM2WxhmaJUW-WSdB-70" value="" style="endArrow=classic;html=1;rounded=0;" edge="1" parent="1">
          <mxGeometry width="50" height="50" relative="1" as="geometry">
            <mxPoint x="113" y="780" as="sourcePoint" />
            <mxPoint x="395" y="780" as="targetPoint" />
            <Array as="points">
              <mxPoint x="277" y="780" />
            </Array>
          </mxGeometry>
        </mxCell>
        <mxCell id="KqxjXM2WxhmaJUW-WSdB-72" value="" style="endArrow=classic;html=1;rounded=0;" edge="1" parent="1">
          <mxGeometry width="50" height="50" relative="1" as="geometry">
            <mxPoint x="115" y="919" as="sourcePoint" />
            <mxPoint x="115" y="919" as="targetPoint" />
            <Array as="points">
              <mxPoint x="395" y="919.5" />
            </Array>
          </mxGeometry>
        </mxCell>
        <mxCell id="KqxjXM2WxhmaJUW-WSdB-73" value="If available book issue request" style="text;html=1;strokeColor=none;fillColor=none;align=center;verticalAlign=middle;whiteSpace=wrap;rounded=0;" vertex="1" parent="1">
          <mxGeometry x="170" y="750" width="170" height="30" as="geometry" />
        </mxCell>
        <mxCell id="KqxjXM2WxhmaJUW-WSdB-74" value="" style="endArrow=classic;html=1;rounded=0;" edge="1" parent="1" source="KqxjXM2WxhmaJUW-WSdB-6">
          <mxGeometry width="50" height="50" relative="1" as="geometry">
            <mxPoint x="433" y="780" as="sourcePoint" />
            <mxPoint x="715" y="780" as="targetPoint" />
            <Array as="points">
              <mxPoint x="597" y="780" />
            </Array>
          </mxGeometry>
        </mxCell>
        <mxCell id="KqxjXM2WxhmaJUW-WSdB-75" value="Add book" style="text;html=1;align=center;verticalAlign=middle;resizable=0;points=[];autosize=1;strokeColor=none;fillColor=none;" vertex="1" parent="1">
          <mxGeometry x="525" y="748" width="70" height="30" as="geometry" />
        </mxCell>
        <mxCell id="KqxjXM2WxhmaJUW-WSdB-76" value="" style="endArrow=classic;html=1;rounded=0;" edge="1" parent="1">
          <mxGeometry width="50" height="50" relative="1" as="geometry">
            <mxPoint x="725" y="780" as="sourcePoint" />
            <mxPoint x="1039" y="780" as="targetPoint" />
            <Array as="points">
              <mxPoint x="921" y="780" />
            </Array>
          </mxGeometry>
        </mxCell>
        <mxCell id="KqxjXM2WxhmaJUW-WSdB-77" value="Mark book as issued" style="text;html=1;align=center;verticalAlign=middle;resizable=0;points=[];autosize=1;strokeColor=none;fillColor=none;" vertex="1" parent="1">
          <mxGeometry x="795" y="748" width="130" height="30" as="geometry" />
        </mxCell>
        <mxCell id="KqxjXM2WxhmaJUW-WSdB-78" value="" style="endArrow=classic;html=1;rounded=0;" edge="1" parent="1">
          <mxGeometry width="50" height="50" relative="1" as="geometry">
            <mxPoint x="401" y="840" as="sourcePoint" />
            <mxPoint x="715" y="840" as="targetPoint" />
            <Array as="points">
              <mxPoint x="597" y="840" />
            </Array>
          </mxGeometry>
        </mxCell>
        <mxCell id="KqxjXM2WxhmaJUW-WSdB-79" value="Delete book" style="text;html=1;align=center;verticalAlign=middle;resizable=0;points=[];autosize=1;strokeColor=none;fillColor=none;" vertex="1" parent="1">
          <mxGeometry x="515" y="810" width="90" height="30" as="geometry" />
        </mxCell>
        <mxCell id="KqxjXM2WxhmaJUW-WSdB-80" value="" style="endArrow=classic;html=1;rounded=0;" edge="1" parent="1">
          <mxGeometry width="50" height="50" relative="1" as="geometry">
            <mxPoint x="725" y="840" as="sourcePoint" />
            <mxPoint x="1039" y="840" as="targetPoint" />
            <Array as="points">
              <mxPoint x="921" y="840" />
            </Array>
          </mxGeometry>
        </mxCell>
        <mxCell id="KqxjXM2WxhmaJUW-WSdB-81" value="Mark book unissued" style="text;html=1;align=center;verticalAlign=middle;resizable=0;points=[];autosize=1;strokeColor=none;fillColor=none;" vertex="1" parent="1">
          <mxGeometry x="815" y="808" width="130" height="30" as="geometry" />
        </mxCell>
        <mxCell id="KqxjXM2WxhmaJUW-WSdB-82" value="Print Bill" style="text;html=1;align=center;verticalAlign=middle;resizable=0;points=[];autosize=1;strokeColor=none;fillColor=none;" vertex="1" parent="1">
          <mxGeometry x="205" y="808" width="70" height="30" as="geometry" />
        </mxCell>
        <mxCell id="KqxjXM2WxhmaJUW-WSdB-83" value="Print Remainder Message" style="text;html=1;strokeColor=none;fillColor=none;align=center;verticalAlign=middle;whiteSpace=wrap;rounded=0;" vertex="1" parent="1">
          <mxGeometry x="172.5" y="890" width="155" height="30" as="geometry" />
        </mxCell>
        <mxCell id="KqxjXM2WxhmaJUW-WSdB-84" value="" style="endArrow=classic;html=1;rounded=0;" edge="1" parent="1">
          <mxGeometry width="50" height="50" relative="1" as="geometry">
            <mxPoint x="113" y="870" as="sourcePoint" />
            <mxPoint x="395" y="870" as="targetPoint" />
            <Array as="points">
              <mxPoint x="277" y="870" />
            </Array>
          </mxGeometry>
        </mxCell>
        <mxCell id="KqxjXM2WxhmaJUW-WSdB-87" value="If overdue?" style="text;html=1;strokeColor=none;fillColor=none;align=center;verticalAlign=middle;whiteSpace=wrap;rounded=0;" vertex="1" parent="1">
          <mxGeometry x="215" y="850" width="80" height="30" as="geometry" />
        </mxCell>
      </root>
    </mxGraphModel>
  </diagram>
</mxfile>
